<svg xmlns="http://www.w3.org/2000/svg" xmlns:xlink="http://www.w3.org/1999/xlink" width="490" height="571" viewBox="0 0 490 571">
  <defs>
    <clipPath id="clip-path">
      <rect id="Rectángulo_6" data-name="Rectángulo 6" width="490" height="571" transform="translate(1237.816 307)" fill="#fff" stroke="#707070" stroke-width="1"/>
    </clipPath>
  </defs>
  <g id="Enmascarar_grupo_1" data-name="Enmascarar grupo 1" transform="translate(-1237.816 -307)" clip-path="url(#clip-path)">
    <g id="_364_customer_service_flatline" data-name="#364_customer_service_flatline" transform="translate(1238.079 329.801)">
      <path id="Trazado_52" data-name="Trazado 52" d="M337.556,186.419s-80.153-28.3-107.319-8.84S121.575,407.364,136.646,442.592s127.429,17.484,127.429,17.484,315.525,16.942,347.586,6.066c47.684-16.206-58.2-270.017-73.986-283.493s-88.792,9.771-88.792,9.771" transform="translate(-134.802 36.183)" fill="#fff"/>
      <path id="Trazado_53" data-name="Trazado 53" d="M250.84,324.75a1.264,1.264,0,0,1-.672-.2c-37.581-23.16-85.817-17.224-86.393-17.159a1.183,1.183,0,0,1-1.344-.932,1.107,1.107,0,0,1,1.008-1.213c.5,0,49.628-6.131,87.976,17.506a1.082,1.082,0,0,1,.507.7,1,1,0,0,1-.2.817,1.2,1.2,0,0,1-.888.477Z" transform="translate(-114.177 113.38)" fill="#231f20"/>
      <path id="Trazado_54" data-name="Trazado 54" d="M346.737,324.761a1.2,1.2,0,0,1-1.191-.757,1.033,1.033,0,0,1,.495-1.236c38.4-23.637,87.5-17.571,88-17.506a1.107,1.107,0,0,1,1.008,1.213,1.209,1.209,0,0,1-1.368.932c-.48,0-48.716-6-86.273,17.159a1.317,1.317,0,0,1-.672.195Z" transform="translate(22.539 113.369)" fill="#231f20"/>
      <path id="Trazado_55" data-name="Trazado 55" d="M199.578,345.492h0a1.254,1.254,0,0,1-.828-.363,1.02,1.02,0,0,1-.3-.786l8.423-128.953a1.047,1.047,0,0,1,.4-.748,1.283,1.283,0,0,1,.87-.271,1.231,1.231,0,0,1,.836.357,1,1,0,0,1,.292.792L200.85,344.474A1.187,1.187,0,0,1,199.578,345.492Z" transform="translate(-87.272 61.353)" fill="#231f20"/>
      <path id="Trazado_56" data-name="Trazado 56" d="M346.717,343.494a1.146,1.146,0,0,1-1.2-1.083V218.917a1.206,1.206,0,0,1,2.4,0V342.411A1.146,1.146,0,0,1,346.717,343.494Z" transform="translate(22.559 63.351)" fill="#231f20"/>
      <path id="Trazado_57" data-name="Trazado 57" d="M234.993,175.506s27.5,129.8,79.193,191.328c0,0,70.026-113.267,83.657-183.832,0,0-53.131,9.208-72.786,9.381S234.993,175.506,234.993,175.506Z" transform="translate(-59.981 38.927)" fill="#231f20"/>
      <path id="Trazado_58" data-name="Trazado 58" d="M314.608,368.312a1.2,1.2,0,0,1-.96-.433c-51.212-61.032-79.073-190.462-79.361-191.761a1.041,1.041,0,0,1,.36-1,1.266,1.266,0,0,1,1.128-.26c.7.173,69.594,16.834,89.368,16.834h.312c19.342-.173,71.994-9.251,72.594-9.36a1.258,1.258,0,0,1,1.056.3.979.979,0,0,1,.336.953c-13.511,69.936-83.1,183.03-83.8,184.157a1.189,1.189,0,0,1-.96.563ZM237.095,177.4c3.432,15.361,30.429,130.535,77.417,187.84,8.135-13.389,69.066-115.152,82.337-180.474-9.407,1.6-53.491,8.926-71.3,9.1h-.312C306.809,193.775,248.542,180.125,237.095,177.4Z" transform="translate(-60.522 38.533)" fill="#231f20"/>
      <path id="Trazado_59" data-name="Trazado 59" d="M278.076,211.975l11.111,17.4-27.982,74.789,33.357,51.131,30.429-53.514L302.962,229.7l11.591-17.722-18.382-16.466Z" transform="translate(-40.405 50.469)" fill="#d1d3d4"/>
      <path id="Trazado_60" data-name="Trazado 60" d="M295.012,356.767a1.231,1.231,0,0,1-1.056-.542l-33.333-51.131a.91.91,0,0,1,0-.888l27.79-74.313L277.566,212.93a1,1,0,0,1,.192-1.3l18.07-16.466a.959.959,0,0,1,.864-.325,1.189,1.189,0,0,1,.84.325l18.383,16.466a.987.987,0,0,1,.192,1.322l-11.327,17.332,21.91,71.648a1.1,1.1,0,0,1,0,.78l-30.453,53.514a1.243,1.243,0,0,1-1.032.585Zm-31.965-52.344,31.965,48.964,29.229-51.369-21.91-71.691a.968.968,0,0,1,0-.845L313.443,212.5l-16.8-15.166L280.061,212.5l10.655,16.682a1.046,1.046,0,0,1,0,.888Z" transform="translate(-40.926 50.078)" fill="#231f20"/>
      <path id="Trazado_61" data-name="Trazado 61" d="M251.572,172.511l105.4.3-1.848,36.333H280.682l-36.141-15.621Z" transform="translate(-52.85 37.199)" fill="#231f20"/>
      <path id="Trazado_62" data-name="Trazado 62" d="M355.617,210.615H281.223a1.432,1.432,0,0,1-.5,0l-36.165-15.621a1.069,1.069,0,0,1-.624-1.3l7.031-20.994a1.166,1.166,0,0,1,1.152-.78h0l105.423.3a1.313,1.313,0,0,1,.864.347,1,1,0,0,1,.312.78l-1.848,36.333a1.174,1.174,0,0,1-1.248.932Zm-74.154-2.167h73l1.752-34.167-103.191-.3-6.551,19.3Z" transform="translate(-53.343 36.858)" fill="#231f20"/>
      <path id="Trazado_63" data-name="Trazado 63" d="M393.372,156.581c5.64-11.244,7.2-26.345,9.335-38.391.96-5.438,4.056-12.588,3.216-18.069-.6-3.835-3.5-6.933-3.768-11.266-.216-3.856-.192-7.973-2.568-11.179s-8.255-4.571-10.823-1.495a107.352,107.352,0,0,0,6-29.7,61.339,61.339,0,0,1-29.037,4.333,39.776,39.776,0,0,0,10.031-10.529c-8.687,5.98-20.854,3.986-31.7,2.73-24.742-2.86-50.876,0-72.474,11.331-6.935,3.64-13.919,8.97-14.711,16.206a16.843,16.843,0,0,0-15.047,4.723,28.08,28.08,0,0,0-7.031,13.541c-7.2,28.642,4.8,53.254,7.871,81.506,23.422,1.3,47.06,3.1,70.7,2.773C332.153,172.743,383.341,176.47,393.372,156.581Z" transform="translate(-61.821 -39.101)" fill="#fff"/>
      <path id="Trazado_64" data-name="Trazado 64" d="M333.187,174.649H313.94c-19.2.282-38.613-.888-57.379-1.993l-13.415-.78a1.153,1.153,0,0,1-1.128-.975,268.182,268.182,0,0,0-4.8-26.519c-4.1-18.394-7.967-35.77-2.976-55.334a28.427,28.427,0,0,1,7.2-14.018,18.48,18.48,0,0,1,14.951-5.438c1.176-5.871,6.263-11.2,15.119-15.837,20.062-10.529,46.076-14.6,73.242-11.483l2.4.282c10.223,1.213,20.806,2.492,28.462-2.773a1.274,1.274,0,0,1,1.512,0,1.01,1.01,0,0,1,.24,1.365,40.6,40.6,0,0,1-8.183,9.121,59.751,59.751,0,0,0,25.582-4.333,1.311,1.311,0,0,1,1.178.085,1.053,1.053,0,0,1,.526.955,108.068,108.068,0,0,1-5.088,27.082,8.65,8.65,0,0,1,2.256-.238A9.9,9.9,0,0,1,401.1,77.5a18.748,18.748,0,0,1,2.712,10.659v1.062a16.456,16.456,0,0,0,1.9,5.98,19.434,19.434,0,0,1,1.848,5.2,32.628,32.628,0,0,1-1.824,12.8c-.552,1.993-1.08,3.878-1.392,5.59-.384,2.167-.768,4.571-1.152,6.955-1.68,10.508-3.6,22.424-8.279,31.7C387.134,172.915,356.465,174.649,333.187,174.649Zm-17.014-2.318h6.887c21.454.26,61.411.737,69.762-15.924h0c4.536-9.013,6.431-20.756,8.087-31.112.384-2.4.768-4.745,1.176-7,.312-1.8.84-3.726,1.392-5.763a30.992,30.992,0,0,0,1.7-11.851,17.322,17.322,0,0,0-1.68-4.658,18.07,18.07,0,0,1-2.088-6.716V88.246a17.122,17.122,0,0,0-2.4-9.555,7.425,7.425,0,0,0-5.52-2.73,4.066,4.066,0,0,0-3.336,1.278,1.283,1.283,0,0,1-1.512.325,1.086,1.086,0,0,1-.6-1.3A105.933,105.933,0,0,0,393.877,48.6a62.585,62.585,0,0,1-27.861,3.7,1.124,1.124,0,0,1-1.008-.78,1,1,0,0,1,.384-1.148,38.865,38.865,0,0,0,6.959-6.5c-7.8,2.968-17.206,1.842-25.654.823l-2.4-.26c-26.638-3.076-52.1.888-71.706,11.179-8.759,4.593-13.511,9.771-14.135,15.382a1.047,1.047,0,0,1-.5.78,1.308,1.308,0,0,1-.984.152,15.6,15.6,0,0,0-13.895,4.333,26.767,26.767,0,0,0-6.743,13c-4.8,19.131-1.056,36.268,3,54.424a259.884,259.884,0,0,1,4.8,25.825l12.407.715c18.742,1.1,38.109,2.167,57.187,1.993Z" transform="translate(-62.302 -39.532)" fill="#231f20"/>
      <path id="Trazado_65" data-name="Trazado 65" d="M250.874,221.454s19.51,9.013,53.012,10.053S343,224.336,343,224.336l-.816-16.184-1.824-37.611-1.824-35.033-76.457-2.383-3.648,28.382-1.128,9.273Z" transform="translate(-48.12 14.472)" fill="#fff"/>
      <path id="Trazado_66" data-name="Trazado 66" d="M310.081,233.082h-5.736c-33.381-1.04-53.3-10.074-53.491-10.161a1.022,1.022,0,0,1-.648-1.083l11.183-88.46a1.011,1.011,0,0,1,.4-.711,1.236,1.236,0,0,1,.844-.242l76.457,2.383a1.146,1.146,0,0,1,1.152,1.04l4.416,88.829a.986.986,0,0,1-.192.628C344.254,225.673,338.71,233.082,310.081,233.082Zm-57.4-11.851c3.864,1.582,22.534,8.666,51.764,9.6,28.8.888,36.5-5.156,37.8-6.5l-4.32-87.529-74.274-2.34Z" transform="translate(-48.628 14.066)" fill="#231f20"/>
      <path id="Trazado_67" data-name="Trazado 67" d="M254.556,160.449c5.447,8.666,14.759,15.448,24.358,20.669,16.127,8.666,40.413,18.762,60.475,16.639l-1.824-37.611a207.4,207.4,0,0,1-44.108-1.127c-12.863-1.408-26.11-2.99-37.773-7.843Z" transform="translate(-45.371 24.888)" fill="#231f20"/>
      <path id="Trazado_68" data-name="Trazado 68" d="M334.193,199.507c-20.59,0-43.2-10.443-55.387-17.072-11.543-6.283-19.894-13.368-24.79-21.059a1.035,1.035,0,0,1-.144-.65L255,151.453a1.106,1.106,0,0,1,.6-.823,1.315,1.315,0,0,1,1.1,0c11.831,4.918,25.414,6.5,37.413,7.756a205.269,205.269,0,0,0,43.82,1.1,1.315,1.315,0,0,1,.91.253,1.074,1.074,0,0,1,.434.765l1.824,37.633a1.1,1.1,0,0,1-1.056,1.1,52.115,52.115,0,0,1-5.855.26Zm-77.9-39c4.8,7.258,12.695,13.974,23.758,19.976,12.911,7,37.533,18.329,58.6,16.6l-1.728-35.445a211.331,211.331,0,0,1-43.2-1.235c-11.639-1.3-24.79-2.752-36.6-7.323Z" transform="translate(-45.886 24.503)" fill="#231f20"/>
      <path id="Trazado_69" data-name="Trazado 69" d="M366.1,86.256c3.792.347,2.784,9.944,2.808,14.993v25.609c0,10.031.384,20.127,0,30.137a48.677,48.677,0,0,1-1.608,10.638c-6.562,24.4-31.21,41.291-59.011,40.428l-6.839-.238c-32.33-1.046-57.611-25.538-56.491-54.727.216-5.828,0-11.721,0-17.571,0-7.431-4.344-25.565,5.376-28.923a45.1,45.1,0,0,1,9.863-1.322,36.421,36.421,0,0,0,24.142-12.458l-1.56,8.168A121.74,121.74,0,0,0,331.947,94.9c7.679-2.643,15.623-6.5,18.766-13.433l-.288,15.166c3.984-.52,6.743-3.7,9.431-6.5S364.728,86.126,366.1,86.256Z" transform="translate(-53.264 -15.335)" fill="#fff"/>
      <path id="Trazado_70" data-name="Trazado 70" d="M310.906,209.587h-2.064L302,209.348a62.741,62.741,0,0,1-41.684-17.109c-10.827-10.474-16.595-24.405-16.031-38.723.144-3.878,0-7.843,0-11.678v-5.871c0-1.495-.192-3.445-.408-5.7-.84-8.991-1.992-21.276,6.575-24.222a28.972,28.972,0,0,1,7.535-1.192l2.592-.217A35.376,35.376,0,0,0,283.86,92.593a1.283,1.283,0,0,1,1.42-.333A1.069,1.069,0,0,1,286,93.416l-1.32,7.02a120.578,120.578,0,0,0,47.372-6.2c9.863-3.38,15.623-7.453,18.094-12.826a1.18,1.18,0,0,1,1.344-.65,1.114,1.114,0,0,1,.96,1.083l-.264,13.671a17.855,17.855,0,0,0,6.6-5.026l.7-.715c3.024-3.076,5.28-4.333,7.2-4.333h0c4.272.412,4.1,7.28,3.936,13.346v38.37c0,6.608.192,13.433,0,20.149-1.063,29.108-27.544,52.19-59.8,52.127ZM282.948,96.926a38.637,38.637,0,0,1-22.1,9.858l-2.664.217a25.986,25.986,0,0,0-6.887,1.04c-6.863,2.362-5.784,13.736-5.016,22.012.216,2.318.408,4.333.408,5.893V153.56c-.537,13.741,5,27.111,15.387,37.165a60.242,60.242,0,0,0,40,16.435l6.863.238a60.985,60.985,0,0,0,41.187-13.872c11.141-9.383,17.684-22.385,18.184-36.132.24-6.673.144-13.476,0-20.062V98.9c0-3.553.288-10.941-1.776-11.136h0c-.48,0-1.944.195-5.208,3.51l-.672.8c-2.52,2.6-5.352,5.546-9.431,6.066a1.294,1.294,0,0,1-.984-.238,1.079,1.079,0,0,1-.408-.845l.216-10.833c-3.36,4.116-8.9,7.431-17.063,10.226a123.641,123.641,0,0,1-49.7,6.153,1.239,1.239,0,0,1-.844-.415,1.006,1.006,0,0,1-.236-.841Z" transform="translate(-53.772 -15.757)" fill="#231f20"/>
      <path id="Trazado_71" data-name="Trazado 71" d="M284.652,106.018s19.2,38.37,10.727,39-20.614-4.983-20.614-4.983" transform="translate(-30.279 -1.169)" fill="#fff"/>
      <path id="Trazado_72" data-name="Trazado 72" d="M294.445,146.6c-8.567,0-19.2-5-19.678-5.221a1.118,1.118,0,0,1-.593-.642.989.989,0,0,1,.089-.832,1.266,1.266,0,0,1,1.608-.455c.12,0,12,5.568,19.942,4.918a.777.777,0,0,0,.672-.39c2.568-3.986-6.239-24.894-12.383-37.135a1.047,1.047,0,0,1,.629-1.371,1.263,1.263,0,0,1,1.555.483c1.68,3.336,16.294,32.867,12.263,39a3.158,3.158,0,0,1-2.52,1.473A6.143,6.143,0,0,1,294.445,146.6Z" transform="translate(-30.76 -1.539)" fill="#231f20"/>
      <ellipse id="Elipse_6" data-name="Elipse 6" cx="4.032" cy="6.998" rx="4.032" ry="6.998" transform="translate(228.024 109.334)" fill="#231f20"/>
      <ellipse id="Elipse_7" data-name="Elipse 7" cx="4.032" cy="6.998" rx="4.032" ry="6.998" transform="translate(278.828 109.334)" fill="#231f20"/>
      <path id="Trazado_73" data-name="Trazado 73" d="M329.773,172.7c-1.44,0-48.812,35.965-48.812,35.965l29.277,30.83,31.2-53.882Z" transform="translate(-25.652 37.31)" fill="#fff"/>
      <path id="Trazado_74" data-name="Trazado 74" d="M310.753,240.923a1.331,1.331,0,0,1-.912-.39l-29.277-30.808a1.006,1.006,0,0,1,.144-1.538c47.684-36.225,49.028-36.225,49.58-36.225a1.308,1.308,0,0,1,.936.39l11.759,13a1,1,0,0,1,.12,1.192l-31.2,53.882a1.235,1.235,0,0,1-.936.563ZM283.179,209.14l27.334,28.772,30.093-51.824-10.583-11.634c-4.776,3.055-29.685,21.752-46.844,34.773Z" transform="translate(-26.166 36.882)" fill="#231f20"/>
      <path id="Trazado_75" data-name="Trazado 75" d="M253.122,172.511c1.56,0,57.043,36.268,57.043,36.268l-33.837,30.83-33.861-58.844Z" transform="translate(-54.399 37.199)" fill="#fff"/>
      <path id="Trazado_76" data-name="Trazado 76" d="M276.836,241.026h-.192a1.2,1.2,0,0,1-.888-.563l-33.837-58.844a1.012,1.012,0,0,1,.288-1.322l10.631-8.255a1.28,1.28,0,0,1,.792-.26c.48,0,1.944,0,57.739,36.485a1,1,0,0,1,.5.78,1.024,1.024,0,0,1-.336.845L277.8,240.788A1.32,1.32,0,0,1,276.836,241.026Zm-32.349-59.58,32.637,56.764,31.7-28.88c-20.494-13.389-50.4-32.628-55-35.12Z" transform="translate(-54.908 36.779)" fill="#231f20"/>
      <path id="Trazado_77" data-name="Trazado 77" d="M293.529,162.24H291.8c-22.87-1.452-27.694-25-27.742-25.24a.967.967,0,0,1,.24-.867,1.28,1.28,0,0,1,.912-.39l60.979-1.863a1.2,1.2,0,0,1,1.032.455.972.972,0,0,1,0,1.018C326.862,136.437,315.223,162.24,293.529,162.24ZM266.723,137.8c1.32,4.68,7.2,21.1,25.246,22.229s29.445-18.286,32.4-23.962Z" transform="translate(-38.291 14.907)" fill="#231f20"/>
      <path id="Trazado_78" data-name="Trazado 78" d="M247.334,89.093h11.447v69.33H247.359c-12.087,0-21.886-8.846-21.886-19.759V108.917a18.827,18.827,0,0,1,6.376-14.006,23.13,23.13,0,0,1,15.486-5.818Z" transform="translate(-67.09 -10.935)" fill="#fff"/>
      <path id="Trazado_79" data-name="Trazado 79" d="M259.3,159.886H247.858c-12.748-.024-23.073-9.354-23.086-20.864V109.3c.013-11.509,10.338-20.84,23.086-20.864H259.3a1.169,1.169,0,0,1,1.2,1.083v69.33a1.175,1.175,0,0,1-1.2,1.04Zm-11.447-69.33c-11.442.024-20.7,8.411-20.686,18.741v29.725c.013,10.313,9.263,18.673,20.686,18.7H258.1V90.556Z" transform="translate(-67.614 -11.316)" fill="#231f20"/>
      <path id="Trazado_80" data-name="Trazado 80" d="M21.886,0H33.309V69.33H21.886C9.8,69.33,0,60.483,0,49.571V19.781A18.834,18.834,0,0,1,6.4,5.795,23.136,23.136,0,0,1,21.886,0Z" transform="translate(349.214 145.667) rotate(180)" fill="#fff"/>
      <path id="Trazado_81" data-name="Trazado 81" d="M327.573,158.734H316.149a1.146,1.146,0,0,1-1.2-1.083V88.321a1.146,1.146,0,0,1,1.2-1.083h11.423c12.754,0,23.1,9.328,23.11,20.842v29.812c-.026,11.509-10.362,20.83-23.11,20.842Zm-10.223-2.167h10.223c11.423-.012,20.684-8.363,20.71-18.676V108.1c-.026-10.313-9.287-18.664-20.71-18.676H317.349Z" transform="translate(-0.269 -12.005)" fill="#231f20"/>
      <path id="Trazado_82" data-name="Trazado 82" d="M386.745,126.465a2.292,2.292,0,0,1-2.4-2.167c0-36.181-25.078-65.6-55.867-65.6h-31.2c-30.789,0-55.867,29.422-55.867,65.6a2.412,2.412,0,0,1-4.8,0c0-38.565,27.214-69.936,60.667-69.936h31.2c33.453,0,60.667,31.372,60.667,69.936A2.292,2.292,0,0,1,386.745,126.465Z" transform="translate(-58.77 -30.975)" fill="#231f20"/>
      <path id="Trazado_83" data-name="Trazado 83" d="M264.513,157.264c-11.543,0-20.878-.542-22.486-2.167-4.152-4.333-5.448-24.135-5.592-26.389a1.152,1.152,0,0,1,1.128-1.148,1.257,1.257,0,0,1,.886.271,1.02,1.02,0,0,1,.386.769c.36,5.915,1.944,21.969,4.992,25.067,2.592,2.167,37.773,1.6,70.314-.368a1.21,1.21,0,0,1,1.272,1.018,1.021,1.021,0,0,1-.3.786,1.253,1.253,0,0,1-.828.363C307.3,155.878,283.064,157.264,264.513,157.264Z" transform="translate(-58.904 11.26)" fill="#231f20"/>
      <rect id="Rectángulo_7" data-name="Rectángulo 7" width="36.405" height="9.489" rx="3.009" transform="translate(220.801 161.678)" fill="#231f20"/>
      <path id="Trazado_84" data-name="Trazado 84" d="M292.868,153.023H266.974c-3.565,0-6.455-2.609-6.455-5.828s2.89-5.828,6.455-5.828h25.894c3.565,0,6.455,2.609,6.455,5.828s-2.89,5.828-6.456,5.828Zm-25.894-9.489a3.681,3.681,0,1,0,0,7.323h25.894a3.681,3.681,0,1,0,0-7.323Z" transform="translate(-40.918 19.228)" fill="#231f20"/>
      <path id="Trazado_85" data-name="Trazado 85" d="M289.777,129.147h-25.99c-8.592-.012-15.551-6.3-15.551-14.061V102.8a1.146,1.146,0,0,1,1.2-1.083h54.739a1.146,1.146,0,0,1,1.2,1.083v12.284c-.013,7.769-6.993,14.061-15.6,14.061ZM250.636,103.8V115c0,6.561,5.884,11.882,13.151,11.894h25.99c7.271-.012,13.162-5.33,13.175-11.894V103.8Z" transform="translate(-50.09 -3.65)" fill="#231f20"/>
      <path id="Trazado_86" data-name="Trazado 86" d="M326.345,129.147H300.259c-8.6-.012-15.561-6.3-15.575-14.061V102.8a1.146,1.146,0,0,1,1.2-1.083H340.7a1.146,1.146,0,0,1,1.2,1.083v12.284c0,7.757-6.958,14.049-15.551,14.061ZM287.084,103.8V115c.013,6.564,5.9,11.882,13.175,11.894h26.086c7.267-.012,13.151-5.334,13.151-11.894V103.8Z" transform="translate(-22.871 -3.65)" fill="#231f20"/>
      <path id="Trazado_87" data-name="Trazado 87" d="M289.582,108.19a1.165,1.165,0,0,1-.648-.173,7.9,7.9,0,0,0-5.615-1.6,1.974,1.974,0,0,0-1.248,1.04,1.235,1.235,0,0,1-1.512.672,1.154,1.154,0,0,1-.7-.527.969.969,0,0,1-.073-.817,4.207,4.207,0,0,1,2.688-2.4c2.064-.65,4.8,0,7.775,1.842a1.03,1.03,0,0,1,.46,1.207,1.191,1.191,0,0,1-1.132.765Z" transform="translate(-26.569 -2.257)" fill="#231f20"/>
      <path id="Trazado_88" data-name="Trazado 88" d="M252.709,107.5h-7.655a1.089,1.089,0,1,1,0-2.167h7.655a1.169,1.169,0,0,1,1.2,1.083A1.146,1.146,0,0,1,252.709,107.5Z" transform="translate(-53.363 -1.565)" fill="#231f20"/>
      <path id="Trazado_89" data-name="Trazado 89" d="M507.4,429.877H199.174l-27.79-181.86H535.218Z" transform="translate(-107.483 80.767)" fill="#231f20"/>
      <path id="Trazado_90" data-name="Trazado 90" d="M507.919,431.422H199.69a1.142,1.142,0,0,1-1.176-.932L170.7,248.565a1.1,1.1,0,0,1,.288-.845,1.331,1.331,0,0,1,.912-.39H535.733a1.227,1.227,0,0,1,.888.39.935.935,0,0,1,.288.845l-27.789,181.86A1.158,1.158,0,0,1,507.919,431.422Zm-307.174-2.167H506.887l27.454-179.824H173.268Z" transform="translate(-107.998 80.371)" fill="#231f20"/>
      <rect id="Rectángulo_8" data-name="Rectángulo 8" width="329.468" height="13.541" rx="4.286" transform="translate(80.749 510.645)" fill="#231f20"/>
      <path id="Trazado_91" data-name="Trazado 91" d="M503.759,378.36H189.386a8.988,8.988,0,0,1-7.924-3.8,7.215,7.215,0,0,1,0-8.1,8.988,8.988,0,0,1,7.924-3.8H503.759c4.627.219,8.254,3.671,8.254,7.854S508.386,378.141,503.759,378.36ZM189.146,364.884a6.52,6.52,0,0,0-5.789,2.737,5.228,5.228,0,0,0,0,5.9,6.52,6.52,0,0,0,5.789,2.737H503.759a5.692,5.692,0,1,0,0-11.374Z" transform="translate(-100.886 146.908)" fill="#231f20"/>
      <path id="Trazado_92" data-name="Trazado 92" d="M486.272,364.857H185.842a1.089,1.089,0,1,1,0-2.166h300.43a1.089,1.089,0,1,1,0,2.166Z" transform="translate(-97.582 146.936)" fill="#fff"/>
      <path id="Trazado_93" data-name="Trazado 93" d="M236.966,114.82H227.7a1.089,1.089,0,1,1,0-2.167h9.263a1.089,1.089,0,1,1,0,2.167Z" transform="translate(-66.321 2.66)" fill="#d1d3d4"/>
      <path id="Trazado_94" data-name="Trazado 94" d="M236.966,119.9H227.7a1.089,1.089,0,1,1,0-2.167h9.263a1.089,1.089,0,1,1,0,2.167Z" transform="translate(-66.321 5.593)" fill="#d1d3d4"/>
      <path id="Trazado_97" data-name="Trazado 97" d="M287.207,340.845c-15.126-.036-27.36-11.129-27.334-24.785s12.3-24.711,27.43-24.7,27.382,11.086,27.382,24.742C314.671,329.788,302.365,340.869,287.207,340.845Zm0-47.317c-13.8.036-24.96,10.159-24.934,22.619S273.5,338.69,287.3,338.678s24.982-10.116,24.982-22.575c-.026-12.484-11.25-22.587-25.078-22.575Z" transform="translate(-41.4 105.778)" fill="#fff"/>
      <text id="L" transform="translate(245.736 432.199)" fill="#f6eded" font-size="35" font-family="OpenSans-Bold, Open Sans" font-weight="700"><tspan x="-9.886" y="0">L</tspan></text>
    </g>
  </g>
</svg>
